<svg width="25" height="25" viewBox="0 0 25 25" fill="none" xmlns="http://www.w3.org/2000/svg">
<g id="Download">
<g id="Icon">
<path d="M4.24659 1.23364C3.58293 1.23364 3.04492 1.77165 3.04492 2.43531C3.04492 3.09897 3.58293 3.63698 4.24659 3.63698H5.71169L6.07887 5.1057C6.08272 5.12269 6.08694 5.13953 6.0915 5.15623L7.72244 11.68L6.64986 12.7526C5.13585 14.2666 6.20813 16.8553 8.34928 16.8553H18.6665C19.3302 16.8553 19.8682 16.3173 19.8682 15.6536C19.8682 14.99 19.3302 14.452 18.6665 14.452L8.34928 14.452L9.55094 13.2503H17.4649C17.9201 13.2503 18.3362 12.9931 18.5397 12.586L22.1447 5.37604C22.331 5.00354 22.3111 4.56116 22.0921 4.20689C21.8732 3.85262 21.4864 3.63698 21.0699 3.63698H8.18899L7.81571 2.14386C7.68197 1.60892 7.20133 1.23364 6.64992 1.23364H4.24659Z" fill="#937DC2"/>
<path d="M19.8683 19.8595C19.8683 20.855 19.0612 21.662 18.0658 21.662C17.0703 21.662 16.2633 20.855 16.2633 19.8595C16.2633 18.864 17.0703 18.057 18.0658 18.057C19.0612 18.057 19.8683 18.864 19.8683 19.8595Z" fill="#937DC2"/>
<path d="M8.45242 21.662C9.44792 21.662 10.2549 20.855 10.2549 19.8595C10.2549 18.864 9.44792 18.057 8.45242 18.057C7.45693 18.057 6.64992 18.864 6.64992 19.8595C6.64992 20.855 7.45693 21.662 8.45242 21.662Z" fill="#937DC2"/>
</g>
</g>
</svg>
