<svg width="25" height="25" viewBox="0 0 25 25" fill="none" xmlns="http://www.w3.org/2000/svg">
<g id="Phone">
<path id="Icon" d="M2.7121 3.74683C2.7121 3.08317 3.2501 2.54517 3.91376 2.54517H6.5008C7.08822 2.54517 7.58954 2.96985 7.68612 3.54928L8.57452 8.87972C8.66125 9.40008 8.39845 9.91616 7.92661 10.1521L6.06626 11.0823C7.40768 14.4156 10.0683 17.0763 13.4017 18.4177L14.3319 16.5573C14.5678 16.0855 15.0838 15.8227 15.6042 15.9094L20.9347 16.7978C21.5141 16.8944 21.9388 17.3957 21.9388 17.9831V20.5702C21.9388 21.2338 21.4008 21.7718 20.7371 21.7718H18.3338C9.70616 21.7718 2.7121 14.7778 2.7121 6.15017V3.74683Z" fill="#937DC2"/>
</g>
</svg>
