<svg width="21" height="21" viewBox="0 0 21 21" fill="none" xmlns="http://www.w3.org/2000/svg">
<g id="Search">
<path id="Icon" opacity="0.6" fill-rule="evenodd" clip-rule="evenodd" d="M8.93982 4.04404C6.72761 4.04404 4.93427 5.83739 4.93427 8.04959C4.93427 10.2618 6.72761 12.0551 8.93982 12.0551C11.152 12.0551 12.9454 10.2618 12.9454 8.04959C12.9454 5.83739 11.152 4.04404 8.93982 4.04404ZM2.93149 8.04959C2.93149 4.73128 5.62151 2.04126 8.93982 2.04126C12.2581 2.04126 14.9482 4.73128 14.9482 8.04959C14.9482 9.34722 14.5368 10.5488 13.8374 11.531L18.6604 16.354C19.0515 16.7451 19.0515 17.3791 18.6604 17.7702C18.2693 18.1612 17.6353 18.1612 17.2442 17.7702L12.4212 12.9471C11.439 13.6466 10.2375 14.0579 8.93982 14.0579C5.62151 14.0579 2.93149 11.3679 2.93149 8.04959Z" fill="#231F2D"/>
</g>
</svg>
